<svg width="14" height="14" viewBox="0 0 14 14" fill="none" xmlns="http://www.w3.org/2000/svg">
<path d="M6.314 0.0359112C6.37497 0.0113736 6.44018 -0.000903231 6.50589 -0.000216872C6.57161 0.000469486 6.63655 0.0141055 6.697 0.0399112L11.597 2.13991C11.68 2.17551 11.7518 2.2329 11.8047 2.306C11.8577 2.37911 11.8899 2.46519 11.8979 2.55512C11.9059 2.64504 11.8894 2.73546 11.8502 2.81677C11.8109 2.89807 11.7504 2.96723 11.675 3.01691L11.673 3.01891L11.663 3.02591L11.617 3.05791C11.3592 3.24252 11.1159 3.44644 10.889 3.66791C10.495 4.05391 10.142 4.51591 10.019 4.97191C10.259 5.66691 10.6 6.46291 10.892 7.10591C11.051 7.45477 11.2147 7.80147 11.383 8.14591L12.98 9.10591C13.2909 9.29237 13.5483 9.55615 13.727 9.87158C13.9058 10.187 13.9998 10.5434 14 10.9059V12.4999C14.0001 12.63 13.9494 12.7549 13.8589 12.8483C13.7683 12.9416 13.645 12.996 13.515 12.9999L13.5 12.4999L13.515 12.9999H13.481C13.3417 13.0036 13.2023 13.0036 13.063 12.9999C11.3754 12.9606 9.69852 12.7199 8.068 12.2829C5.158 11.4909 1.738 9.80591 0.0479963 6.21291C0.0156923 6.14444 -0.000642669 6.06954 0.000223464 5.99384C0.0010896 5.91814 0.0191342 5.84362 0.0529963 5.77591C0.572996 4.73691 1.623 3.51291 2.773 2.46091C3.92 1.40991 5.232 0.467911 6.313 0.0359112H6.314ZM13 11.9979V11.4609C6.673 10.8999 3.16 8.27691 1.437 5.42191C1.294 5.62491 1.167 5.82191 1.061 6.00991C2.606 9.06691 5.608 10.5769 8.331 11.3179C9.85543 11.7262 11.4224 11.9544 13 11.9979V11.9979ZM12.466 9.96291L11.077 9.12991L10.187 10.0199C11.0814 10.2197 11.9875 10.3626 12.9 10.4479C12.8076 10.2462 12.6563 10.0771 12.466 9.96291V9.96291ZM9.145 4.43391C9.382 3.82991 9.819 3.31691 10.188 2.95391C10.271 2.87391 10.352 2.79791 10.43 2.72791L6.499 1.04391C5.676 1.41391 4.656 2.12691 3.689 2.98191L4.854 4.14591C4.9004 4.19243 4.93718 4.24764 4.96223 4.30838C4.98728 4.36912 5.00011 4.43421 5 4.49991V7.79691C5.543 8.18691 6.154 8.55191 6.84 8.88091L7.888 7.48291L6.084 4.77691C6.0301 4.69579 6.00107 4.60069 6.00047 4.5033C5.99987 4.40591 6.02772 4.31046 6.08062 4.22868C6.13351 4.1469 6.20913 4.08235 6.2982 4.04295C6.38727 4.00356 6.48591 3.99103 6.582 4.00691L9.145 4.43391V4.43391Z" fill="#0FA958"/>
</svg>
