<svg width="24" height="24" viewBox="0 0 24 24" fill="none" xmlns="http://www.w3.org/2000/svg">
<path d="M18.6667 12.25C18.6667 10.0804 17.6502 8.14146 16.07 6.89438L15.25 2H8.41667L7.60521 6.89438C6.01646 8.14146 5 10.0719 5 12.25C5 14.4281 6.01646 16.3585 7.60521 17.6056L8.41667 22.5H15.25L16.07 17.6056C16.8798 16.9676 17.5343 16.1541 17.9841 15.2264C18.4339 14.2987 18.6673 13.281 18.6667 12.25ZM6.70833 12.25C6.70833 9.42271 9.00604 7.125 11.8333 7.125C14.6606 7.125 16.9583 9.42271 16.9583 12.25C16.9583 15.0773 14.6606 17.375 11.8333 17.375C9.00604 17.375 6.70833 15.0773 6.70833 12.25Z" fill="#9E9E9E"/>
</svg>
