<svg width="24" height="24" viewBox="0 0 24 24" fill="none" xmlns="http://www.w3.org/2000/svg">
<path d="M12 7C14.76 7 17 9.24 17 12C17 12.64 16.87 13.25 16.65 13.82L18.15 15.32C18.9355 13.8789 19.1866 12.2066 18.8591 10.5983C18.5316 8.99008 17.6465 7.5492 16.36 6.53L15 2H9.00001L8.04001 5.21L10.18 7.35C10.75 7.13 11.36 7 12 7ZM2.81001 2.81L1.39001 4.22L5.85001 8.68C5.06456 10.1211 4.81343 11.7934 5.14094 13.4017C5.46845 15.0099 6.35354 16.4508 7.64001 17.47L9.00001 22H15L15.96 18.79L19.78 22.61L21.19 21.2L2.81001 2.81ZM12 17C9.24001 17 7.00001 14.76 7.00001 12C7.00001 11.36 7.13001 10.75 7.35001 10.18L13.82 16.65C13.25 16.87 12.64 17 12 17Z" fill="black"/>
</svg>
