<svg width="158" height="50" viewBox="0 0 158 50" fill="none" xmlns="http://www.w3.org/2000/svg">
<rect width="158" height="50" rx="8" fill="#ACC4B8"/>
<rect width="90" height="50" rx="8" fill="#9FE3BA"/>
<path d="M33.3379 28.8818H38.9365V31H30.7012V18.2031H33.3379V28.8818ZM42.9707 31H40.4219V21.4902H42.9707V31ZM40.2725 19.0293C40.2725 18.6484 40.3984 18.335 40.6504 18.0889C40.9082 17.8428 41.2568 17.7197 41.6963 17.7197C42.1299 17.7197 42.4756 17.8428 42.7334 18.0889C42.9912 18.335 43.1201 18.6484 43.1201 19.0293C43.1201 19.416 42.9883 19.7324 42.7246 19.9785C42.4668 20.2246 42.124 20.3477 41.6963 20.3477C41.2686 20.3477 40.9229 20.2246 40.6592 19.9785C40.4014 19.7324 40.2725 19.416 40.2725 19.0293ZM50.2217 28.3721C50.2217 28.0615 50.0664 27.8184 49.7559 27.6426C49.4512 27.4609 48.959 27.2998 48.2793 27.1592C46.0176 26.6846 44.8867 25.7236 44.8867 24.2764C44.8867 23.4326 45.2354 22.7295 45.9326 22.167C46.6357 21.5986 47.5527 21.3145 48.6836 21.3145C49.8906 21.3145 50.8545 21.5986 51.5752 22.167C52.3018 22.7354 52.665 23.4736 52.665 24.3818H50.125C50.125 24.0186 50.0078 23.7197 49.7734 23.4854C49.5391 23.2451 49.1729 23.125 48.6748 23.125C48.2471 23.125 47.916 23.2217 47.6816 23.415C47.4473 23.6084 47.3301 23.8545 47.3301 24.1533C47.3301 24.4346 47.4619 24.6631 47.7256 24.8389C47.9951 25.0088 48.4463 25.1582 49.0791 25.2871C49.7119 25.4102 50.2451 25.5508 50.6787 25.709C52.0205 26.2012 52.6914 27.0537 52.6914 28.2666C52.6914 29.1338 52.3193 29.8369 51.5752 30.376C50.8311 30.9092 49.8701 31.1758 48.6924 31.1758C47.8955 31.1758 47.1865 31.0352 46.5654 30.7539C45.9502 30.4668 45.4668 30.0771 45.1152 29.585C44.7637 29.0869 44.5879 28.5508 44.5879 27.9766H46.9961C47.0195 28.4277 47.1865 28.7734 47.4971 29.0137C47.8076 29.2539 48.2236 29.374 48.7451 29.374C49.2314 29.374 49.5977 29.2832 49.8438 29.1016C50.0957 28.9141 50.2217 28.6709 50.2217 28.3721ZM57.376 19.1523V21.4902H59.002V23.3535H57.376V28.0996C57.376 28.4512 57.4434 28.7031 57.5781 28.8555C57.7129 29.0078 57.9707 29.084 58.3516 29.084C58.6328 29.084 58.8818 29.0635 59.0986 29.0225V30.9473C58.6006 31.0996 58.0879 31.1758 57.5605 31.1758C55.7793 31.1758 54.8711 30.2764 54.8359 28.4775V23.3535H53.4473V21.4902H54.8359V19.1523H57.376Z" fill="black"/>
</svg>
