<svg width="158" height="50" viewBox="0 0 158 50" fill="none" xmlns="http://www.w3.org/2000/svg">
<rect width="158" height="50" rx="8" fill="#ACC4B8"/>
<rect x="68" width="90" height="50" rx="8" fill="#9FE3BA"/>
<path d="M102.665 31H100.028L94.8955 22.5801V31H92.2588V18.2031H94.8955L100.037 26.6406V18.2031H102.665V31ZM104.405 26.1572C104.405 25.2139 104.587 24.373 104.95 23.6348C105.313 22.8965 105.835 22.3252 106.515 21.9209C107.2 21.5166 107.994 21.3145 108.896 21.3145C110.18 21.3145 111.226 21.707 112.034 22.4922C112.849 23.2773 113.303 24.3438 113.396 25.6914L113.414 26.3418C113.414 27.8008 113.007 28.9727 112.192 29.8574C111.378 30.7363 110.285 31.1758 108.914 31.1758C107.543 31.1758 106.447 30.7363 105.627 29.8574C104.812 28.9785 104.405 27.7832 104.405 26.2715V26.1572ZM106.945 26.3418C106.945 27.2441 107.115 27.9355 107.455 28.416C107.795 28.8906 108.281 29.1279 108.914 29.1279C109.529 29.1279 110.01 28.8936 110.355 28.4248C110.701 27.9502 110.874 27.1943 110.874 26.1572C110.874 25.2725 110.701 24.5869 110.355 24.1006C110.01 23.6143 109.523 23.3711 108.896 23.3711C108.275 23.3711 107.795 23.6143 107.455 24.1006C107.115 24.5811 106.945 25.3281 106.945 26.3418ZM114.583 26.1748C114.583 24.6924 114.914 23.5117 115.576 22.6328C116.244 21.7539 117.155 21.3145 118.31 21.3145C119.235 21.3145 120 21.6602 120.604 22.3516V17.5H123.152V31H120.858L120.735 29.9893C120.103 30.7803 119.288 31.1758 118.292 31.1758C117.173 31.1758 116.273 30.7363 115.594 29.8574C114.92 28.9727 114.583 27.7451 114.583 26.1748ZM117.123 26.3594C117.123 27.25 117.278 27.9326 117.589 28.4072C117.899 28.8818 118.351 29.1191 118.942 29.1191C119.728 29.1191 120.281 28.7881 120.604 28.126V24.373C120.287 23.7109 119.739 23.3799 118.96 23.3799C117.735 23.3799 117.123 24.373 117.123 26.3594ZM129.498 31.1758C128.104 31.1758 126.967 30.748 126.088 29.8926C125.215 29.0371 124.778 27.8975 124.778 26.4736V26.2275C124.778 25.2725 124.963 24.4199 125.332 23.6699C125.701 22.9141 126.223 22.334 126.896 21.9297C127.576 21.5195 128.35 21.3145 129.217 21.3145C130.518 21.3145 131.54 21.7246 132.284 22.5449C133.034 23.3652 133.409 24.5283 133.409 26.0342V27.0713H127.354C127.436 27.6924 127.682 28.1904 128.092 28.5654C128.508 28.9404 129.032 29.1279 129.665 29.1279C130.644 29.1279 131.408 28.7734 131.959 28.0645L133.207 29.4619C132.826 30.001 132.311 30.4229 131.66 30.7275C131.01 31.0264 130.289 31.1758 129.498 31.1758ZM129.208 23.3711C128.704 23.3711 128.294 23.541 127.978 23.8809C127.667 24.2207 127.468 24.707 127.38 25.3398H130.913V25.1377C130.901 24.5752 130.749 24.1416 130.456 23.8369C130.163 23.5264 129.747 23.3711 129.208 23.3711Z" fill="black"/>
</svg>
