<svg width="102" height="25" viewBox="0 0 102 25" fill="none" xmlns="http://www.w3.org/2000/svg">
<path d="M5.375 24L0.625 6.54545H5.52273L8.22727 18.2727H8.38636L11.2045 6.54545H16.0114L18.875 18.2045H19.0227L21.6818 6.54545H26.5682L21.8295 24H16.7045L13.7045 13.0227H13.4886L10.4886 24H5.375ZM36.6676 24.3409C34.8722 24.3409 33.3267 23.9773 32.0312 23.25C30.7434 22.5152 29.7509 21.4773 29.054 20.1364C28.357 18.7879 28.0085 17.1932 28.0085 15.3523C28.0085 13.5568 28.357 11.9811 29.054 10.625C29.7509 9.26894 30.732 8.21212 31.9972 7.45454C33.2699 6.69697 34.7623 6.31818 36.4744 6.31818C37.6259 6.31818 38.6979 6.50379 39.6903 6.875C40.6903 7.23864 41.5616 7.78788 42.304 8.52273C43.054 9.25758 43.6373 10.1818 44.054 11.2955C44.4706 12.4015 44.679 13.697 44.679 15.1818V16.5114H29.9403V13.5114H40.1222C40.1222 12.8144 39.9706 12.197 39.6676 11.6591C39.3646 11.1212 38.9441 10.7008 38.4062 10.3977C37.8759 10.0871 37.2585 9.93182 36.554 9.93182C35.8191 9.93182 35.1676 10.1023 34.5994 10.4432C34.0388 10.7765 33.5994 11.2273 33.2812 11.7955C32.9631 12.3561 32.8002 12.9811 32.7926 13.6705V16.5227C32.7926 17.3864 32.9517 18.1326 33.2699 18.7614C33.5956 19.3902 34.054 19.875 34.6449 20.2159C35.2358 20.5568 35.9366 20.7273 36.7472 20.7273C37.285 20.7273 37.7775 20.6515 38.2244 20.5C38.6714 20.3485 39.054 20.1212 39.3722 19.8182C39.6903 19.5152 39.9328 19.1439 40.0994 18.7045L44.5767 19C44.3494 20.0758 43.8835 21.0152 43.179 21.8182C42.482 22.6136 41.5805 23.2348 40.4744 23.6818C39.3759 24.1212 38.107 24.3409 36.6676 24.3409ZM52.679 0.727272V24H47.8381V0.727272H52.679ZM61.3977 0.727272V24H56.5568V0.727272H61.3977ZM76.1506 12.5227V16.3636H65.5369V12.5227H76.1506ZM101.753 12.3636C101.753 14.9015 101.272 17.0606 100.31 18.8409C99.3551 20.6212 98.0521 21.9811 96.4006 22.9205C94.7566 23.8523 92.9081 24.3182 90.8551 24.3182C88.7869 24.3182 86.9309 23.8485 85.2869 22.9091C83.643 21.9697 82.3438 20.6098 81.3892 18.8295C80.4347 17.0492 79.9574 14.8939 79.9574 12.3636C79.9574 9.82576 80.4347 7.66667 81.3892 5.88636C82.3438 4.10606 83.643 2.75 85.2869 1.81818C86.9309 0.878787 88.7869 0.40909 90.8551 0.40909C92.9081 0.40909 94.7566 0.878787 96.4006 1.81818C98.0521 2.75 99.3551 4.10606 100.31 5.88636C101.272 7.66667 101.753 9.82576 101.753 12.3636ZM96.7642 12.3636C96.7642 10.7197 96.518 9.33333 96.0256 8.20455C95.5407 7.07576 94.8551 6.2197 93.9688 5.63636C93.0824 5.05303 92.0445 4.76136 90.8551 4.76136C89.6657 4.76136 88.6278 5.05303 87.7415 5.63636C86.8551 6.2197 86.1657 7.07576 85.6733 8.20455C85.1884 9.33333 84.946 10.7197 84.946 12.3636C84.946 14.0076 85.1884 15.3939 85.6733 16.5227C86.1657 17.6515 86.8551 18.5076 87.7415 19.0909C88.6278 19.6742 89.6657 19.9659 90.8551 19.9659C92.0445 19.9659 93.0824 19.6742 93.9688 19.0909C94.8551 18.5076 95.5407 17.6515 96.0256 16.5227C96.518 15.3939 96.7642 14.0076 96.7642 12.3636Z" fill="black"/>
</svg>
