<svg xmlns="http://www.w3.org/2000/svg" width="2409.45pt" height="2409.45pt" viewBox="0 0 2409.45 2409.45"><path d="M987.594 984.988h33.14V861.414h-33.14ZM866.887 955.75h-58.082v-29.242h58.082Zm0-94.328v35.84h-58.082v-35.84h-33.14v123.566h124.362V861.422M1079.219 905.95h154.035v-29.243h-154.035ZM1237.809 991.672l-60.887-60.89-20.684-20.68-20.68 20.68-60.886 60.89 20.68 20.68 60.886-60.891 60.89 60.89M1120.79 1091.79v-44.099h-33.142v73.34h236.641v-29.242M793.254 1003.602v29.238h194.34v14.851h-194.34v73.34h227.476v-29.242H826.395v-14.848h194.335v-73.34M1291.148 1036.2h33.145V861.413h-33.145ZM1382.781 905.95h154.032v-29.243H1382.78ZM1541.371 991.672l-81.57-81.57-81.57 81.57 20.68 20.68 60.89-60.891 60.89 60.89M1594.71 1036.2h33.142V861.413h-33.141ZM1250.54 921.059c-12.892 0-23.34 10.441-23.34 23.332 0 12.879 10.448 23.328 23.34 23.328 12.882 0 23.331-10.45 23.331-23.328 0-12.891-10.45-23.332-23.332-23.332M1156.238 816.379c-12.886 0-23.328 10.45-23.328 23.332 0 12.89 10.442 23.328 23.328 23.328 12.89 0 23.332-10.437 23.332-23.328 0-12.883-10.441-23.332-23.332-23.332M943.809 871.66c-12.883 0-23.332 10.442-23.332 23.328 0 12.883 10.449 23.332 23.332 23.332 12.886 0 23.332-10.449 23.332-23.332 0-12.886-10.446-23.328-23.332-23.328M943.809 927.98c-12.883 0-23.332 10.442-23.332 23.329 0 12.882 10.449 23.332 23.332 23.332 12.886 0 23.332-10.45 23.332-23.332 0-12.887-10.446-23.329-23.332-23.329M1075.11 1560.055h51.964V1167.34h-51.965ZM752.953 1280.64h267.274v-45.85H752.953ZM1628.91 1213.191v-45.851h-364.289v45.851h28.68v91.707h335.61v-45.859H1345.27v-45.848M886.59 1145.738c-20.203 0-36.582 16.383-36.582 36.582 0 20.211 16.379 36.578 36.582 36.578s36.582-16.367 36.582-36.578c0-20.199-16.379-36.582-36.582-36.582M1455.621 1319.281c-20.21 0-36.59 16.38-36.59 36.578 0 20.211 16.38 36.582 36.59 36.582 20.2 0 36.578-16.37 36.578-36.582 0-20.199-16.379-36.578-36.578-36.578M1242.07 1455.727h414.422v-45.848H1242.07ZM1195.719 1319.281c-20.2 0-36.578 16.38-36.578 36.578 0 20.211 16.379 36.582 36.578 36.582 20.203 0 36.582-16.37 36.582-36.582 0-20.199-16.38-36.578-36.582-36.578M886.59 1420.594c-20.203 0-36.582-16.383-36.582-36.582 0-20.203 16.379-36.582 36.582-36.582s36.582 16.379 36.582 36.582c0 20.199-16.379 36.582-36.582 36.582m0-120.973c-46.606 0-84.387 37.777-84.387 84.39 0 46.606 37.781 84.387 84.387 84.387 46.605 0 84.387-37.78 84.387-84.386 0-46.614-37.782-84.39-84.387-84.39M1455.621 1594.133c-20.21 0-36.59-16.38-36.59-36.582s16.38-36.582 36.59-36.582c20.2 0 36.578 16.379 36.578 36.582s-16.379 36.582-36.578 36.582m0-120.973c-46.61 0-84.39 37.781-84.39 84.39 0 46.606 37.78 84.388 84.39 84.388 46.598 0 84.379-37.782 84.379-84.387 0-46.61-37.781-84.39-84.379-84.39" style="stroke:none;fill-rule:nonzero;fill:#3f3a3a;fill-opacity:1"/><path d="M2000.29 538.719c37.089 11.3 76.5 9.082 119.062-7.02 18.398-6.96 47.359-27.469 45.52-48.949-2.68-30.75-63.813-34.32-84.044-30.309-10.816 2.137-22.957 5.348-32.129-.761-3.77-2.508-6.469-6.309-9.808-9.371-24.93-22.809-71.903 3.953-100.32-13.079-10.15-6.082-14.06-23.421-15.141-35.199-1.07-11.781 1.93-30.52.101-42.203-4.11-26.316-26.14-42.008-26.32-68.648-.121-18.38 14.55-46.801.898-62.852-12.808-15.058-30.968-1.637-42.34 11.742-28.257 33.27-33.808 82.89-30.199 119.489 4.989 50.66 30.41 95.082 69.578 131.691 29.73 27.781 66.223 43.621 105.141 55.469" style="stroke:none;fill-rule:nonzero;fill:#e8332a;fill-opacity:1"/><path d="M2013.3 311.91c5.071 8.3 19.302 17.32 26.231 24.149 6.93 6.832 9.75 15.152 6.89 24.453-2.48 8.058-10.722 13.058-18.91 15.047-19.73 4.8-43.12-6.368-48.613-25.91-5.5-19.547 3.801-45.02 23.903-42.169 3.14.45 8.847 1.73 10.5 4.43M1701.172 308.059c-28.524-4.43-57.383-8.88-86.121-6.258-28.73 2.62-57.801 13.07-77.352 34.3-6.66 7.227-12.328 16.348-11.758 26.16.989 17 19.13 27.15 35.309 32.45 58.102 19 123.762 16.21 180.379-6.73 93.031-37.692 19.941-70.52-40.457-79.922M1653.27 547.3c42.37-35.5 100.34-61.831 156.351-61.671 3.828.012 7.98.36 10.828 2.91 9.77 8.77-3.86 42.602-6.86 52.711-6.51 21.941-14.75 43.398-25.46 63.64-19.89 37.56-48.899 71.11-86.219 91.438-18.39 10.024-38.41 16.672-58.55 22.371-22.07 6.242-36.52 5.61-59.09 9.672-3.04.54-6.211 1.07-9.192.23-24.637-6.91.82-75.43 7.063-88.671 16.73-35.48 41.05-67.41 71.129-92.63M2171.578 668.89c-14.066-18.66-54.547-87.64-25.668-106.39 17.05-11.059 52.68 12.012 67.531 20.89 23.68 14.15 44.528 33.372 56.457 58.25 5.883 12.25 9.461 26.18 12.473 39.43a456 456 0 0 1 7.77 43.97c.257 1.991.488 4.062-.153 5.972-5.308 15.738-52.36-8.403-60.738-12.89-22.441-12.044-42.328-28.884-57.672-49.231M1748.18 129.27c16.992 8.98 32.539 21.19 45.718 35.171 7.922 8.399 33.051 34.84 27.41 47.688-8.68 19.793-58.687 14.27-74.617 12.672-27.453-2.762-54.73-11.992-76.101-29.45-10.52-8.601-19.418-19.011-27.781-29.73-9.649-12.371-23.598-28.23-12.508-44.3 9.758-14.122 29.789-12.602 44.879-11.79 25.43 1.36 50.48 7.82 73 19.739M1907.25 653.27c8.129-19.301 20.059-37.09 35.648-51.16 12.524-11.301 40.032-32.13 58.18-28.551 17.242 3.402 8.371 24.113 7.524 35.382-3.051 40.528-6.813 80.48-30.211 114.848-11.532 16.941-26.45 29.711-42.801 41.43-8.899 6.383-27.738 24.101-39.512 14.96-10.816-8.39.563-46.859 1.05-59.5.872-22.769 1.122-46.058 10.122-67.41" style="stroke:none;fill-rule:nonzero;fill:#e8332a;fill-opacity:1"/><path d="M2158.3 731.23c-5.671.52-11.241 2.141-16.39 4.57-11.058 5.2-20.262 13.59-29.281 21.86a178 178 0 0 0-37.258-41.672c-2.77-2.258-8.371-5.168-10.543-1.328-2.297 4.078-3.957 12.121-5.066 16.461-.383 1.457-.692 3.188.316 4.309.684.761 2.75 1.332 3.75 1.53 13.774 2.79 26.274 11.36 33.832 23.188-8.988-1.82-19.91-1.52-28.219 2.743-.84.43-1.64 1.14-1.742 2.078-.21 1.922 5.102 2.062 6.473 2.55a72 72 0 0 1 10.137 4.481c-3.329-1.79-14.09 3.352-17.207 4.77-5.813 2.652-12.23 6.82-16.872 11.199-3.152 2.98-7.52 9.191-1.902 12.652 1.41.867 5.192-1.242 7.16-.973 3.883.543 7.39 3.153 11.211 2.883-7.52 8.348-15.789 16.39-19.07 27.5-1.938 6.598-1.899 13.64-1.11 20.48 3.36 28.798 20.922 56.637 41.04 76.798 24.113 24.171 53.91 43.203 86.921 51.89 10.57 2.781 21.829 4.48 32.34 1.512 12.602-3.55 22.621-13.54 28.93-25 6.32-11.473 9.371-24.402 11.988-37.23 7.39-36.27 11.84-73.81 5.352-110.262-2.102-11.82-5.488-23.719-12.61-33.39-9.78-13.278-25.66-20.919-41.77-24.45-15.108-3.309-31.42-3.32-45.5 3.09a50.7 50.7 0 0 1 10.36-11.16c2.211-1.758 9.442-4.47 9.27-7.739-.781-4.672-11.399-3.629-14.54-3.34M1993.129 926.11c-2.078-7.22-3.3-14.829-5.559-21.7-5-15.25-11.289-30.16-18.78-44.539-4.028-7.73-8.52-15.46-15.169-21.422-6.652-5.96-15.84-9.98-24.742-8.758-15.309 2.09-23.2 17.457-29.578 30.61a336.6 336.6 0 0 1-31.582 52.3c-3.278 4.47-6.797 8.97-11.688 11.88-6.07 3.59-13.582 4.347-20.84 4.68-20.32.917-95.46-16.661-82.261 24.839 5.968 18.77 23 31.879 37.21 45.262 13.008 12.25 23.63 24.918 24.258 42.668.41 11.82-2.558 23.37-4.968 34.879a377 377 0 0 0-5.578 34.46c-1.73 15.06-1.91 31.11 4.488 44.95.82 1.781 1.941 3.562 3.7 4.59 1.98 1.152 4.448 1.09 6.722.851 26.418-2.789 48.828-21.84 69.75-35.23 3.136-2.008 6.41-4.07 10.199-4.602 8.918-1.25 16.617 6.031 22.8 12.461 16.88 17.563 38.958 43.27 63.59 49.93 5.258 1.422 11.18 2.14 15.797-.39 4.864-2.669 6.973-8.18 8.153-13.4 5.347-23.488.008-48.32-.973-72.28-.34-8.278-.61-16.887 2.942-24.348 5.3-11.153 17.77-17.211 28.878-23.473 14.122-7.937 44.73-22.047 37.122-39.226-7.711-17.41-27.282-33.973-43.348-44.532-11.512-7.57-24.492-13.86-32.91-24.441-3.742-4.7-5.961-10.23-7.633-16.02M1808.172 886.762c8.226-6.442 12.488-23.41 8.719-33.41-.903-2.383-1.79-4.75-2.692-7.133 2.992 1.82 5.23 2.172 8.59 3.14 7.52 2.18 13.461 2.582 20.133-1.148 10.656-5.961 22.789-19.89 22.047-32.082-.598-9.738-6.34-16.61-13.13-23.02-5.128-4.84-17.6-13.129-25.28-10.898 11.543-3.36 21.98-11.602 23.941-23.813 1.77-11.046-2.25-22.66-9.969-30.668-10.453-10.84-27.992-11.832-41.73-7.671-7.602 2.293-20.63 11.562-19.781 19.953-16.051-18.543-50.489-19.532-66.04.199-12.82 16.289-9.011 43.027 7.848 55.09-15.656-1.02-31.078 10.558-34.898 25.777-3.82 15.223 4.011 32.453 17.78 39.98 13.77 7.532 32.188 5.012 43.759-5.597 1.11 13.309 9.972 25.7 22.21 31.039 12.25 5.352 27.962 8.5 38.493.262M1251.781 43.91c2.75 4.63-.293 19.192-5.39 31.09-8.153 19.012-15.063 22.48-18.903 41.84-5.008 25.23-8.289 51.32-3.547 76.601 2.707 14.438 7.97 28.258 13.618 41.82 16.582 39.829 44.12 78.66 79.93 104.45 19.62 14.14 40.05 21.45 67.19 14.34 9.15-2.39 24.821-12.75 31.962-19.301 7.988-7.32 13.699-18.488 13.949-20.031-1.75 10.87 4.031 22.472 12.18 29.383 5.44 2.886 4.628-4.614 5.199-7.801.57-3.18.351-6.45.59-9.68.632-8.543 3.132-17.883 7.62-25.012 3.532-5.62 7.012-12.02 12.743-15.859 5.957-3.988 10.406 5.68 17.25 3 1.68-.672 4.308-2.191 6.437-4.172 1.98-2.129 3.5-4.758 4.16-6.45 2.68-6.827-6.988-11.276-3-17.237 3.833-5.743 10.231-9.211 15.852-12.762 7.117-4.488 16.457-6.988 25-7.629 3.23-.238 6.5-.02 9.68-.59 3.187-.57 10.699.23 7.8-5.21-6.921-8.15-18.523-13.91-29.39-12.15 1.539-.25 12.7-5.972 20.02-13.972 6.539-7.137 16.898-22.816 19.289-31.969 7.082-27.148-.239-47.578-14.391-67.187-25.82-35.793-64.66-63.3-104.5-79.863-13.57-5.637-27.39-10.887-41.828-13.59-25.281-4.719-51.371-1.43-76.602 3.601-19.36 3.852-22.82 10.758-41.828 18.918-11.89 5.114-26.45 8.16-31.09 5.422" style="stroke:none;fill-rule:nonzero;fill:#f39800;fill-opacity:1"/><path d="M1799.691 1390.852c-.98-23.801-.511-68.942-.02-87.633.13-4.867.31-10.098 3.24-13.989 2.167-2.878 5.48-4.55 8.878-5.91.79-.32 35-13.46 39.473-14.62 2.91-.759 5.547-.77 7.039 1 1.738 2.062 1.949 4.96 2.008 7.652.332 15.289.09 26.378.043 33.976-.012 1.57.34 3.66 1.57 4.64 1.43 1.153 3.539.512 5.207-.257 7.371-3.383 35.832-17.582 43.8-21.211 2.18-1 4.5-2.11 5.72-4.172.851-1.437 1.05-3.168 1.222-4.84 1.367-13.43.39-44.976.34-49.578-.04-3.191 1.09-5.922 1.91-7.11.938-1.34 2.91-2.39 4.2-2.902 8.699-3.828 39.07-15.82 50.519-20.136 1.11-.422 4.172-1.293 5.87-.532 1.97.88 2.33 2.551 2.22 5.75-.559 17-2.41 33.52-2.13 37.2.278 3.53 1.5 6.511 5.18 7.191 2.97.55 5.97-.531 8.782-1.621 14.117-5.5 28.61-11.54 41.449-19.648 2.578-1.633 4.86-3.903 5.95-6.75.698-1.832.878-3.801 1.058-5.75 1.293-14.301.812-27.582 1.11-42.024.042-1.86.44-4.5 1.16-5.937 1.363-2.743 4.39-4.153 7.202-5.371 13.899-6.02 26.618-14.82 38.57-21.141 9.278-4.91 10.79-15.32 11.048-24.649.75-26.039 1.492-49.25 2.242-75.289 2.558.387 3.847 3.34 4.02 5.899.179 2.57-.243 5.289.87 7.62 1.59 3.321 5.637 4.54 9.23 5.411 16.118 3.91 32.227 7.809 48.349 11.719 10.19 2.469 22.199 6.18 32.011 5.07-11.133 19.559-53.46 12.41-76.57 22.02-3.762 1.57-7.461 3.66-9.871 6.922-1.649 2.238-2.621 4.918-3.262 7.628-7.066 30.09 27.582 43.77 48.262 56.93 1.191.762 2.422 1.559 3.2 2.738 1.151 1.782 1.062 4.051.94 6.16-.84 15.5-3.742 29.25-2.289 44.704.13 1.418.29 2.886.97 4.148.76 1.39 2.089 2.38 3.398 3.29 15.16 10.062 29.011 21.741 46.12 28.73 2.34.949 5.13 1.808 7.25.449 2.06-1.3 2.512-4.05 2.762-6.457.887-8.492 2.239-35.524 2.809-41.293.219-2.129 1.07-3.328 2.36-3.688 1.288-.37 3.03.11 5.011 1.329 15.64 9.628 26.34 19.12 41.008 30.32 1.531 1.172 3.121 2.422 3.86 4.2.581 1.42.55 3 .491 4.538-.5 13.5-2.5 26.57-3.94 39.953-.09.86-.18 1.719-.071 2.578.66 4.942 6.71 6.891 10.441 9.051 5.45 3.168 27.41 17.84 33.16 21.621 3.559 2.328 10.621 8.649 15.52 7.63 3.21-.661 4.41-5.38 4.629-7.372 1.281-11.879 1.86-31.11 1.902-35.96.02-2.388.39-8.817 3.43-9.43 2.32-.458 4.96 1.042 7.508 3.171 3.511 2.942 31.16 27.98 34.062 30.739 1.738 1.652 5.3 4.652 6.938 7.78 1.691 3.22 2.27 6.97 2.562 11.583 2.09 32.648-1.46 53.648-2.55 86.098-.16 4.796-.61 9.68-3.13 13.77-2.07 3.355-6.25 6.655-9.691 8.589-9.48 5.324-28.922 17.191-30.96 18.16-3.68 1.746-7.52 3.047-11.56 3.016-4.652-.032-9-1.813-13.12-4.082a17 17 0 0 1-.919-.559c-19.613-11.879-39.062-24.031-58.562-36.074a79800 79800 0 0 1-49.39-30.5c-13.63-8.43-23.067-15.918-25.477-32.852-1.543-10.86-.34-21.93-1.332-32.86-4.461-49.05-53.461-81.827-100.91-76.308-17.961 2.09-35.211 9.961-48.418 22.239-13.211 12.27-22.301 28.902-25.364 46.632-1.52 8.868-1.578 17.918-2.316 26.887-1.07 12.973-5 22.082-17.031 27.5-14.891 6.692-29.45 14.223-44.23 21.16-29.09 13.672-58.423 26.867-88.032 39.39-2.469 1.044-5.05 2.106-7.73 1.95-2.919-.172-5.528-1.762-8.008-3.316-6.301-3.965-20.801-11.48-26.77-15.934-9.46-7.043-15.71-11.36-16.43-28.976M2120.25 1566.14c-2.879-1.203-5.719-2.515-8.55-3.855-41.981-19.883-114.891-45.176-148.509 4.137-10.03 14.7-10.632 36.203-6.16 53.055 8.14 30.64 35.297 52.37 64.117 63.097 18.07 6.723 37.18 9.961 56.32 10.88 19.962.956 44.09-.259 57.653-18.09 7.328-9.634 8.277-25.36-.77-33.266-8.73-7.637-21.78-5.032-32.792-1.922-11.02 3.11-23.95 5.945-32.91-1.41-9.329-7.668-8.919-23.594-1.63-33.368 7.282-9.773 19.34-14.367 31.083-16.37 17.949-3.067 39.257-1.54 54.808 9.35 14.531 10.185 21.86 24.263 20.309 42.4-.719 8.41-5.86 16.245-10.668 22.753-5.04 6.82-12.762 12.305-16.992 19.586-.59 1.024-1.047 2.496-.188 3.285.43.387 1.04.453 1.598.489 13.402.89 25.73-4.996 37.39-11.375 18.52-10.137 34.352-27.32 39.051-48.512 1.7-7.7 1.91-15.676 1.719-23.578-.29-11.348-1.649-22.922-5.527-33.598-2.563-7.02-9.372-22.098-17.352-23.922-.48-.113-.988-.16-1.469-.07-1.203.226-2.09 1.226-2.91 2.148-11.883 13.286-28.812 21.551-46.242 22.59-11.64.688-20.43.13-31.379-4.433" style="stroke:none;fill-rule:nonzero;fill:#f39800;fill-opacity:1"/><path d="M2155.66 1522.5c-1.5-.52-2.77-1.535-4.148-2.324-7.172-4.113-16.211-1.758-23.461 2.191-1.313.711-2.762 1.496-4.192 1.113-2.129-.578-2.87-3.625-1.879-5.671 1-2.047 3.098-3.235 5.149-4.086 7.45-3.094 15.96-3.301 23.582-.72 2.059.7 8.437 2.724 9.437 5.067 1.372 3.223-1.16 5.582-4.488 4.43m86.2-52.031c-.758-.73-1.848-.914-2.872-1.055a250.7 250.7 0 0 0-69.93.102c9.473-4.04 16.5-13.063 19.782-23.13 3.281-10.07 3.11-21.085 1.07-31.503-.89-4.52-3.43-9.992-7.851-9.602-2.82.25-4.809 2.89-6.418 5.313-9.102 13.668-18.16 27.855-31.082 37.652-2.149 1.625-4.438 3.145-7.008 3.809-3.75.965-7.68.039-11.45-.82-27.382-6.231-56.703-8.633-82.82 1.898-3.75 1.512-7.59 3.312-11.601 3.008-7.309-.563-12.301-7.657-16.25-14.067q-8.366-13.605-16.75-27.21c-.7-1.141-1.461-2.34-2.649-2.895-2.21-1.035-4.703.593-6.472 2.32-9.829 9.637-13.618 25.379-9.32 38.688 4.312 13.304 16.5 23.472 29.94 24.976l-54.757-5.508c-8.473-.851-18.082-1.324-24.3 4.715-5.86 5.703-6.333 15.73-2.692 23.176 3.64 7.441 10.55 12.621 17.808 16.219 14.66 7.265 32.524 8.937 47.07 1.425-.75 2.18-1.91 14.97 2.364 14.54.469-.047.887-.301 1.289-.551 6.98-4.328 13.48-9.465 20.55-13.621 6.4-3.758 13.45-6.223 20.727-7.535 15.864-2.868 31.282-.118 45.903 6.253 13.55 5.907 23.039 18.305 35.12 26.563 20.77 14.191 49.45 14.715 70.68 1.285 1.84-1.164 3.7-2.5 4.7-4.48 1.578-3.125-3.551-27.61-7.29-28.403 13.387 2.84 27.848-.289 39.04-8.437 9.308-6.782 16.507-17.633 16.539-29.442 0-1.32-.14-2.78-1.07-3.683M2288.512 976.371c-3.024 1.848-5.532 4.438-7.184 7.367-1.008 1.793-1.77 3.762-3.387 5.16-1.82 1.582-4.402 2.153-6.77 2.891-9.3 2.91-17.362 9.941-23.472 16.742-12.59 14.028-16.969 32.969-17.39 50.09-.66 26.34 3.41 52.54 11.91 77.328 7.34 21.39 18.34 46.172 42.062 56.531 6.848 2.989 14.418 4.59 22.07 5.508 3.34.403 6.86.73 9.547 2.461 2.692 1.723 4.082 5.41 1.961 7.871 4.36 1.399 8.88-2.449 13.57-3.058 2.72-.364 5.372.398 8.04.758 9.531 1.27 19.191-2.532 28.18-6.23 1.382-.571 2.831-1.188 3.68-2.321 2.312-3.09-1.458-6.61-4.817-8.489 11.968-5.27 20.847-15.289 26.468-26.09 5.61-10.812 8.34-22.48 11.008-34.03 1.801-7.72.89-15.65.782-23.45-.29-20.05-3.59-41.62-9.641-60.629-3.578-16.222-12.328-33.191-24.738-44.953-14.903-14.137-33.54-19.008-55.172-19.5-1.098-.02-2.23-.058-3.188-.476-1.11-.5-1.832-1.454-2.66-2.262-3.64-3.64-9.82-4.91-15.3-3.55a19.9 19.9 0 0 0-5.56 2.331M1439.77 383.23c-2.551-.53-4.872 1.22-6.782 2.79-35.386 29.039-90.238 35.761-121.25 68.52-14.77 15.589-22.547 35.929-23.699 56.42-.27 4.81-.2 9.688-1.469 14.36-1.351 4.98-4.18 9.59-5.03 14.668-.892 5.32.48 10.774 2.358 15.922 5.18 14.121 14.403 27.102 26.532 37.371 49.48 41.86 129.66 52.528 191.93 32.848 17.09-5.399 32.89-13.969 45.82-25.23 11.261-9.797 27.879-26.239 25.18-41.41-.63-3.54-2.141-6.9-3.22-10.348-4.628-14.832-1.288-30.41-5.171-45.332-3.88-14.887-13.078-28.59-22.59-41.27-8.027-10.719-53.54-44.277-67.91-52.45-7.52-4.269-16.149-12.55-23.418-17.14-3.61-2.277-7.27-8.898-11.281-9.719M2299.719 1584.484c-5.77 19.368-24.438 32.645-30.828 51.813-6.672 19.98 1.28 42.289-3.711 62.75-4.032 16.586-15.989 29.898-27.282 42.7-2.707 3.065-5.527 6.452-5.847 10.534-.781 9.79 12.75 14.317 22.16 11.512 17.39-5.18 28.187-22.059 36.71-38.078 9.77-18.39 18.368-39.98 27.02-60.254 14.707-34.496 26.207-67.035 36.297-99.219 5.723-18.23-1.328-48.46-26.636-48.351-32.25.14-22.18 47.484-27.883 66.593" style="stroke:none;fill-rule:nonzero;fill:#f39800;fill-opacity:1"/><path d="M1826.52 1465.27c-4.899-2.915-8.38-5.352-13.02-8.293-8.238-5.243-16.328-11.2-25.55-14.438-14.071-4.941-31 1.102-36.27 15.05-1.13 2.985-1.54 7.407-2.82 10.325-1.282 2.934-3.18 5.54-4.989 8.18a150 150 0 0 0-9.082 15.054c-2.508 4.79-4.789 9.809-5.91 15.106-2.379 11.363.93 23.52 7.691 32.957 6.758 9.441 16.72 16.297 27.5 20.59 17.352 6.906 37.18 7.383 54.84 1.316 12.34-4.242 20.918-11.879 28.969-22.09 3.75-4.773 9.223-9.715 11.41-15.289 4.082-10.414 2.32-24.347-2.41-34.176-2.64-5.496-5.867-8.859-10.59-12.222-5.89-4.195-12.98-8.031-19.77-12.07M846.465 54.18c-12.613 26.379-12.805 64.25-23.317 91.53-16.644 4.911-34.98-1.05-48.875-11.448-7.578-5.672-19.558-15.184-23.378-24.032-7.836-18.152-13.653-16.59 10.73-26.128 20.707-8.114 50.5-19.243 84.84-29.922M1999.238 1985.41c-6.636 12.48-2.117 28.113-3.828 42.317-4.648 38.625-62.64 82.949-100.941 64.722-8.508-4.05-15.528-11.566-24.82-13.156-13.52-2.316-26.547 10.398-27.419 24.09-.87 13.691 8.06 26.64 19.739 33.836 11.691 7.191 25.703 9.527 39.402 10.406 25 1.605 49.348-6.723 70.418-19.734 17.512-10.817 40.711-26.883 53.84-42.582a172.2 172.2 0 0 0 22.05-33.664c4.41-8.84 8.09-18.227 8.923-28.07 1.59-18.985-3.891-44.805-23.973-50.876-11.95-3.61-26.367.871-32.758 11.594-.223.367-.43.742-.633 1.117" style="stroke:none;fill-rule:nonzero;fill:#ffe100;fill-opacity:1"/><path d="M2135.14 1830.031c2.688-3.422 5.31-6.906 7.54-10.71 2.851-4.887 5.25-10.133 7.66-15.356l.332.012c6.25.261 9.43 2.285 10.277 7.43.79 4.777 1.63 9.546 2.45 14.32a447 447 0 0 0-28.258 4.304m-196.68 57.028c-3.61-17.899-7.191-35.934-10.633-53.34.64.433 1.23.937 1.883 1.363 27.2 17.621 63.25 20.969 94.21 12.063 5.419 2.539 10.99 4.714 16.68 6.574-34.44 10-68.5 21.129-102.14 33.34m-220.09 98.898c.867-4.363 1.25-8.977 1.82-14.121 1.579-14.066 5.47-28.438 8.258-42.316 4.531-22.59 9.25-41.715 14.48-64.133 3.801-16.285 12.301-19.524 28.5-19.61 25.891-.132 49.493-.625 75.72-.05 16.171.359 24.41 6.261 26.632 20.351 2.258 14.367 4.68 28.719 6.98 43.082-55.59 22.594-109.812 48.27-162.39 76.797m42.73-190.027c3-19.078 7.047-37.063 10.458-56.059 5.171-28.812 9.59-52.488 14.722-78.785 22.79 34.934 54.258 81.547 69.758 101.953 1.992 12.52 3.98 25.191 6.04 38.332 1.96 12.426-1.567 17.969-12.708 18.2-17.973.37-32.68.663-51.062.663-9.348 0-15.297-.28-26.48-.894-8.317-.461-12.759-10.473-10.727-23.41m151.168-42.575c8.832 13.711 16.78 19.372 28.218 31.075 9.262 9.476 20.692 22.215 31.422 30.004 10.2 7.402 20.57 14.77 31.309 21.379-13.508.167-27.168-2.489-38.278-8.32-19.66-10.31-30.082-18.345-45.171-34.723-1.168-5.97-2.301-11.766-3.372-17.258-1.238-6.332-3.168-14.668-5.539-24.285.48.718 1 1.503 1.41 2.128m130.262 86.829c19.989-9.938 37.45-28.286 51.13-50.84-3.99 13.687-7.97 27.379-11.962 41.066-1.25 4.3-2.59 8.61-3.91 12.926-7.898 2.094-15.73 4.383-23.59 6.59-6.347-1.715-12.539-4.043-18.55-6.883 2.3-.95 4.671-1.762 6.882-2.86m82.867-8.226a711 711 0 0 0-21.168 4.648c.16-.671.329-1.363.48-2.03 1.77-8.25 3.84-16.43 5.88-24.614 1.48-5.95 4.781-7.524 11.031-7.16 7.367.422 14.73.633 22.09.894-5.32 10.461-11.582 20.504-16.7 26.684-.5.598-1.1 1.008-1.613 1.578m-8.168-49.293c1.168-6.965 2.961-10.402 4.29-17.34 2.652-13.797 4.789-21.086 7.718-34.824.223-1.023.551-2.18 1.551-2.629.582-.258 1.281-.21 1.93-.156 2.922.238 6.21-.074 9.133.168.898.074 1.878.176 2.57.746.7.578.93 1.484 1.11 2.332 3.788 17.164 6.366 28.605 9.206 44.742a199 199 0 0 1-1.949 6.582c-.91 2.871-2.09 5.953-3.39 9.094-6.348.207-12.868.738-18.93.476-3.617-.156-4.79-.418-9.11-.64-3.218-.168-4.93-3.824-4.129-8.55m72.149 52.456a1159 1159 0 0 1 21.812-4.996c6.23-1.367 18.11-3.898 24.48-4.32 4.188-.278 1.067-1.414-2.37-2.012-6.172-1.07-15.602-.8-21.84-.79-8.23.013-16.45.36-24.672.763-3.71-15.829-8.45-32.54-11.078-45.364-2.45-11.953-10.082-43.168-14.73-60.515-1.141-4.266-3.622-6.074-9.11-6.266-9.762-.336-20.61-.508-29.781-.887-6.809-.285-9.281 2.586-10.13 6.211-2.448 10.598-4.64 20.5-6.972 30.371-3.816 7.93-8.316 15.73-14.898 28.309-8.899 16.992-36.211 45.004-52.79 52.898-5.34 2.547-11.3 4.426-17.562 5.66-11.68-7.605-22.308-16.828-31.316-26.601-43.942-47.68-83.871-130.273-109.711-177.14-1.95-7.337-3.762-14.25-5.36-20.489-2.972-11.668-9.39-16.633-23.581-17.148-25.25-.914-53.301-1.395-77.02-2.434-17.61-.773-24 7.09-26.16 17.016-12.461 57.43-22.168 107.441-37.61 164-13.351 48.91-26.699 97.82-40.058 146.73-10.05 36.82-22.55 73.656-27.633 111.711-6.09 4.164-11.55 8.496-15.277 12.922 13.52 8.336 41.5 5.766 57.18 6.34 45.609 1.656 91.23 2.547 136.82 2.664 9.457.023 22.386.758 31.328-2.55 9.37-3.47 17.02-13.095 23.66-19.743 4.719-4.734 9.57-9.52 14.469-14.297.082 4.629.18 9.234.27 13.91.023 1.262.1 2.668 1.03 3.57.922.91 2.36.97 3.641.97 27.68-.04 55.352-.274 83.012-.716-7.172-14.988-12.531-30.082-16.922-45.351-2.71-9.461-5.012-19.008-7.172-28.621 4.613-3.399 9.113-6.578 13.332-9.2 18.39-11.417 36.48-23.816 55.281-34.949 20.618-12.215 41.457-24.086 62.29-35.953 18.16-10.344 36.378-20.715 55.789-28.629 7.82-3.183 16.5-6.074 25.53-8.742 1.028 9.852 3.41 25.906 3.598 35.863 0 .457.043.973.391 1.305.36.332.91.352 1.41.352 10.7-.012 21.692-.008 32.38-.168-2.759-5.477-7.25-17.47-8.938-23.043-2.032-6.758-3.52-13.645-5.012-20.64M1157.91 276.762c2.621.117 5.29.597 7.52 1.976 3.8 2.364 5.61 6.813 7.898 10.653 3.723 6.257 9.102 11.34 14.531 16.187 25.141 22.5 53.282 42.652 71.75 70.89 2.36 3.61 4.582 7.384 7.621 10.454 3.04 3.066 7.079 5.43 11.399 5.418 2.133-.012 4.262-.59 6.371-.309 1.012.14 2.191.73 2.18 1.75-.008.719-.63 1.278-1.2 1.73q-6.162 4.905-12.332 9.81c-9.957 7.917-21.59 17.429-34.27 20.09-14.839 3.128-30.077 4.878-45.257 4.128-22.95-1.148-51.11-8.66-65.621-28.09-7.05-9.437-14.32-18.61-18.7-40.629-2.831-14.23 2-28.96 7.579-42.39 7.621-18.36 16.21-42.782 40.531-41.668M1657.531 1787.707c6.82-16.117 8.739-34.871 2.258-51.125-5.809-14.555-19.75-27.508-35.809-29.113-1.73-.176-3.82.3-5.43-.492-2.19-1.082-3.831-4.122-5.491-5.868-5.239-5.511-11.77-9.136-18.957-11.496-3.93-1.289-7.993-2.304-12.133-2.5-21.43-.992-43.41 18.04-54.848 34.356-3.992 5.687-7.492 11.77-9.793 18.328-4.297 12.277-4.207 25.906-.566 38.394 3.648 12.493 10.726 23.848 19.718 33.246 3.77 3.946 7.95 7.614 12.872 9.981 4.918 2.367 10.68 3.344 15.91 1.8 7.75 7.665 19.11 10.802 30 10.59 13.648-.273 27.039-5.421 37.847-13.761 10.82-8.34 19.102-19.762 24.422-32.34M1719.121 1656.762c-5.55 11.129-16.031 23.687-28.14 27.554-12.583 4.016-26.63 4.938-39.72 3.782-.792-.07-1.652-.184-2.202-.762-1.02-1.074-.239-2.832.632-4.027 5.387-7.375 13.618-13.348 21.368-18.004a69.5 69.5 0 0 1 23.77-8.88c2.151-.374 24.57-.218 24.292.337M1626.18 1634.875c6.699 7.05 13.129 18.105 12.742 28.047-.402 10.316-3.473 20.89-7.82 30.203-.262.563-.57 1.168-1.141 1.414-1.07.465-2.152-.578-2.8-1.539-3.981-5.93-6.173-13.574-7.532-20.512a54.5 54.5 0 0 1-.18-19.84c.29-1.68 6.39-18.125 6.73-17.773M965.484 24.89c-19.914.532-47.804 11.641-69.093 33.801 36.789 2.137 49.172 1.29 65.597 18.258-23.492 5.223-35.87 31.13-42.996 54.121-7.125 22.98-6.992 47.48-9.816 71.38 19.535-3.778 39.246-7.622 57.531-15.462 18.29-7.84 35.293-20.117 45.254-37.34 1.668 25.98 12.418 51.301 29.96 70.543 17.54 19.239 41.759 32.27 67.477 36.329-8.277-6.782-7.437-19.489-5.539-30.02 3.23-17.969 7.36-35.969 7.082-54.219-.293-18.261-5.582-37.261-18.601-50.062 12.351 5.402 26 7.82 39.45 6.98 28.6-1.77 53.448-15.12 78.26-4.98-5.85-20.64-16.519-41.649-32.581-52.219-24.797-16.328-56.418-16.98-86.11-16.578 26.84-13.133 51.93-30.3 69.52-54.453-22.168 7.52-43.668 3.02-67.04 4.39-16.6.97-37.26 3.782-51.788 11.852-7.27 4.027-13.223 7.187-19.813 12.129-6.11 4.57-15.758.648-22.75-.621-11.222-2.04-22.543-4.14-34.004-3.828" style="stroke:none;fill-rule:nonzero;fill:#ffe100;fill-opacity:1"/><path d="M1768.05 2199.797c.122 11.762-3.652 24.027-13.269 30.601 1.93-19-2.62-38.843-13.191-54.75-19.852-29.878-39.39-28.058-39.25-37.011 10.289 8.949 28.55 6.16 51.11 30.066 8 8.473 14.48 19.445 14.6 31.094m9.731-38.535c-16.851-24.242-45.96-37.543-75.082-42.36-11.89-1.968-23.93-2.855-35.828-4.757-5.84-.934-11.66-2.094-17.332-3.79-5.16-1.543-13.758-9-17.43-3.097-6.8 10.937 3.172 20.754 10.68 27.648 22.121 20.313 54.242 23.192 73.82 47.086 18.301 22.317 20.59 64.684-9.96 78.059-9.938 4.351-21.098 3.254-30.04-2.746.391 7.812-9.507 18.797-15.14 23.133-18.367 14.132-38.91 9.078-42.149 8.289-18.082-4.407-32.648-17.73-38.37-33.094-8.56-23.004-.212-46.59 9.788-67.707 8.332-17.586 18.012-35.02 20.832-54.274 1.489-10.172 1-20.554-.39-30.742-2.192-16.039-6.758-31.95-14.63-46.156-3.948-7.125-31.57-58.715-70.812-40.223-4.789 2.262-8.617 7.672-7.918 12.926.418 3.11 2.649 5.711 5.22 7.504 2.581 1.797 5.53 2.957 8.288 4.46 13.32 7.255 25.64 21.282 30.012 35.817 1.45 4.801 2.52 9.719 3.11 14.7 2.581 21.636-3.731 43.39-12.259 63.44-8.53 20.052-19.351 39.134-26.582 59.688-6.488 18.442-10.007 38.34-6.789 57.622 3.23 19.28 13.86 37.867 30.7 47.789 16.84 9.921 40.02 9.613 54.859-3.118 21.441 9.168 60.39 8.54 82.68-11.89 2.93-2.684 5.52-5.82 9.011-7.7 2.7-1.453 5.73-2.12 8.711-2.796 11.7-2.649 24.168-4.864 34.79-10.442 10.609-5.57 19.41-14.773 24.218-25.761 1.25-2.86 2.191-5.883 3.89-8.5 1.872-2.872 4.56-5.09 6.993-7.516 20.887-20.863 19.95-57.254 3.11-81.492M667.309 464.64c-4.59-8.992-11.168-18.28-22.438-15.6-2.578.608-5.012 1.698-7.43 2.788-10.761 4.832-22.171 10.23-28.257 20.344-3.246 5.387-3.512 11.02-2.012 17 1.324 5.27 6.117 9.219 9.105 13.598.926 1.359 1.887 2.84 1.813 4.48-.192 4.191-5.781 1.398-8.34 1.43-3.187.03-5.629.55-8.691 1.02-3.47.53-7.079.109-10.262 1.89-3.926 2.191-5.676 6.87-6.668 11.262-2.008 8.84-2.219 17.976-2.27 27.046-.02 4.16 0 8.391 1.25 12.364 1.91 6.039 6.45 9.758 12.633 10.11 1.75.097 12.508-.802 13.27 1.007.965 2.3-6.176 5.762-7.7 7.133-5.07 4.558-7.64 9.289-4.375 15.43 4.348 8.18 7.047 18.5 12.805 25.769 8.969 11.328 26.043.027 35.488-4.52.844-.402 1.91-.78 2.649-.21.367.28.555.738.695 1.18.899 2.87.485 5.96.625 8.968.696 15.11 21.59 10.812 31.461 10.582 4.54-.11 12.488.57 15.906-2.89 2.153-2.173 2.528-5.493 2.786-8.54.23-2.722-.735-11.011 2.71-11.96 1.293-.352 2.528.667 3.454 1.64a57 57 0 0 1 4.449 5.25c1.746 2.328 3.472 4.918 6.172 6.008 6.64 2.652 11.496-3.45 16.383-6.88 3.09-2.179 6.609-3.648 9.957-5.41 3.347-1.75 6.628-3.89 8.77-7.007 2.218-3.23 2.007-6.41 1.98-10.133-.016-2.25-.575-4.629-.352-6.867.543-5.531 13.102-3.14 17.285-4.192 6.692-1.671 11.05-6.761 14.004-12.73 1.488-3.012 1.707-6.09 2.836-9.2 1.469-4.03 2.785-8.01 3.504-12.25.398-2.359.648-4.788.144-7.128-1.164-5.39-6.375-8.64-10.855-11.133-3.898-2.16-8.066-4.93-4.059-9.418 2.5-2.8 4.645-4.371 4.868-8.7.308-5.991-3.297-13.773-5.793-19.1-4.43-9.462-8.72-24.75-21.903-22.43-5.047.89-15.386 5.34-14.668-4.262.383-5.117 2.414-12.777-2.222-16.52-1.645-1.32-3.657-2.09-5.637-2.808-9.426-3.442-19.133-6.461-29.149-7.48-4.468-.45-10.535-1.212-14.886.199-3.766 1.218-5.59 6.449-7.004 10-1.098 2.742-2.043 5.62-2.649 8.511-.554 2.66-.035 5.59-1.738 7.867-.765 1.024-1.98 1.793-3.25 1.68-3.27-.277-3.223-4.898-4.394-7.187" style="stroke:none;fill-rule:nonzero;fill:#b3d001;fill-opacity:1"/><path d="M1128.309 565.82c26.902 18.63 52.992 35.309 85.48 36.64 7.902.321 16.121-.8 21.29-6.788 5.07-5.871 8.57-20.633 6.952-28.223-5.691-26.648-21.172-47.187-41.48-65.36-20.313-18.167-43.922-32.179-66.692-47.148-41.46-27.25-128.789-102.312-161.933-139.652-26.555-29.91-34.617-76.289-74.664-94.96-10.078-4.7-22.086-6.65-32.301-2.24-21.328 9.2-31.246 37.7-59.305 25.56-12.953-5.61-22.14-17.22-30.75-28.41-34.426-44.739-86.984-125.4-145.597-63.548-12.102 12.77-19.938 33.36-26.93 49.508-10.45 24.13-19.137 48.961-28.676 73.461-7.234 18.602-17.305 60.68-33.969 72.762C505.68 372.09 485.531 302.5 455.422 296c-18.418-3.969-41.36 2.398-56.426 13.719-9.348 7.02-16.84 15.32-25.758 23.39-9.328 8.43-19.105 18.563-28.425 28.192-14.606 15.09-30.301 32.71-39.637 51.52-9.336 18.808-11.957 37.648-3.39 56.82 1.913 4.289 4.472 8.437 8.253 11.218 3.555 2.61 7.941 3.832 12.3 4.48 44.544 6.602 62.028-39.077 82.509-68.89 7.32-10.648 16.66-22.078 29.562-22.91 5.223-.328 10.41 1.2 15.156 3.402 15.946 7.387 27.266 21.79 39.082 34.797 11.813 13.012 26.012 25.711 43.477 27.672 27.344 3.059 46.895-20.64 60.21-41.558 22.349-35.114 27.056-78.391 56.74-109.762 7.124-7.531 16.323-14.418 26.679-14 6.32.262 12.2 3.23 17.558 6.59 21.125 13.261 36.958 33.039 50.125 53.898 11.274 17.871 21.114 47 47.649 45.422 10.387-.61 18.965-8.89 23.508-18.25 4.543-9.371 5.965-19.871 8.34-30.012 2.375-10.129 6.058-20.508 13.851-27.398 7.73-6.84 18.567-9.29 28.875-8.82 46.938 2.14 79.8 43 106.305 77.242C1001.969 431.539 1070 517.039 1107.3 549.46a242 242 0 0 0 21.008 16.36M622.09 802.102c-4.711 1.488-12.942 3.52-17.992 4.578 7.941-16.61 17.843-33.102 31.203-45.961 41.191-39.66 104.93-50.867 159.113-38.13 5.281 1.24 10.488 2.923 15.274 5.513 2.218 1.207 6.39 3.027 8.382 4.59.844.66 6.825 4.32 5.473 5.367-.715.562-6.352-.75-7.242-.84-1.7-.168-3.41-.25-5.117-.219-3.434.04-6.86.46-10.215 1.191-6.793 1.48-13.293 4.2-19.242 7.77q-.625.373-1.239.758c-12.468 7.832-22.476 18.941-32.082 30.101-7.742 8.989-15.586 17.942-24.289 26.051-13.066 12.168-44.574 29.527-84.14 32.758-16.91 1.383-35.86-2.399-51.125-9.348-3.727-1.691-5.602-5.02-.524-4.55 17.14 1.597 32.149-.36 48.113-6.91 13.575-5.571 24.059-15.91 32.758-28.692 5.64-8.29 13.328-22.95 25.074-30.91-7.28 1.812-14.796 5.281-23.695 15.062-15.398 16.938-30.129 26.028-48.488 31.82M132.094 661.25c1.16-1.73 2.34-3.43 3.543-5.11 7.27-10.16 19.207-18.55 22.457-31.14 1.867-7.23-.574-16.102 3.078-22.621 4.207-7.5 14.406-8.89 22.95-9.86a335 335 0 0 1 43.51-2.078c1.263-6.761 6.876-16.12 10.876-21.761 14.445-20.328 35.86-35.43 57.652-47 28.41-15.078 62.504-22.91 93.746-14.11 64.356 18.121 81.371 63.942 81.426 63.442 7.203 13.258 11.535 28.008 13.41 42.957.488 8.222.309 16.261-.555 23.742l.762.77c-.207 9.808-8.062 47.039-8.586 48.96-1.996 7.387-3.953 11.38-10.226 16.88-1.938 1.699-4.078 3.449-6.645 3.66-4.894.41-8.344-4.852-9.39-9.653-2.762-12.637 5.066-25.887 7.886-38.058l.742-3.211c1.961-8.918 4.551-24.72 1.954-43.07-2.22-18.239-10.72-38.31-24.735-53.989-25.847-29.031-62.84-38.18-98.578-20.77-23.883 11.641-42.2 32.82-54.191 56.52 4.449 2 8.132 5.488 12.773 7.078 23.527 8.063 43.344 18.594 61.875 30.192 25.8 16.16 43.82 33.64 63.7 56.69 12.046 13.981 26.5 38.028 20.57 55.5-2.118 6.25-6.383 11.599-11.414 15.86-6.622 5.61-14.118 9.078-22.145 10.86-21.117 4.68-59.82-3.942-71.535-24.399-5.473-9.562-2.32-24.383 8.234-27.531 3.23-.96 6.696-.762 10-1.422 3.305-.668 6.758-2.61 7.54-5.887.382-1.62.046-3.332-.458-4.921-6.691-21.008-37.218-22.098-48.699-4.73-12.176 18.42-3.984 43.1 8.227 58.66 12.976 16.538 28.23 24.671 47.851 30.902 50.504 16.027 129.031-26.774 164.055 29.289 2.695 4.32 4.691 10.199 1.578 14.23-3.059 3.957-8.988 3.61-13.98 3.3-23.832-1.491-80.02 10.68-110.067 29.188-20.07 12.36-59.187 38.5-83.437 51.512-6.63 2.988-45.985 23.008-96.282-4.281-24.988-13.559-40.125-22.352-59.613-34.95-12.683-8.21-30.324-21.359-44.687-34.199-11.477-10.261-24.106-21.062-30.055-35.613-3.281-8.02-4.59-16.726-5.086-25.387-1.824-31.671 7.031-62.941 20.965-91.152 5.578-11.3 11.914-22.73 19.004-33.289M596.746 933.36c-2.078 8.05-16.566 29.062-52.945 31.449-17.856 1.18-36.899-1.27-54.489-4.38-7.808-1.378-22.57-3.218-25.14 7.54-1.738 7.281 7.305 16.082 12.351 20.261 14.075 11.66 22.18 25.07 27.942 42.72.887 2.722 1.687 5.57 3.57 7.722 1.645 1.867 3.95 3.02 6.258 3.957 21.074 8.55 44.816 6.422 67.23 2.543 2.989-.512 6.094-1.082 8.551-2.852 2.512-1.82 4.93-6.96 6.156-9.808 8.325-19.364 22.137-27.383 34.872-38.184 13.457-11.406 32.578-53.379 37.136-67.316 1.7-5.203 1.867-11.942-1.078-16.551-2.015-3.16-5.281-5.27-8.539-7.121-22.2-12.55-48.148-16.762-73.61-18.23a388 388 0 0 0-71.855 2.538c-16.922 2.192-38.601 5.262-51.89 16.891-14.18 12.422-5.84 22.59 7.004 29.41 10.023 5.332 22.793 8.61 29.742 9.32 10.972 1.13 22.402 2.012 33.398.61 4.715-.598 9.469-1.57 13.668-3.8 6.492-3.438 11.399-10.81 7.418-18.079-.723-1.32-1.7-2.5-2.34-3.871-1.36-2.93-.965-6.54.758-9.27 3.488-5.53 13.543-7.328 19.586-6.41 20.805 3.18 30.05 16.192 26.246 30.91M523.645 601.86c23.953 16.492 49.601 44.87 54.59 74.19 5.18 30.438 2.714 63.278-4.247 93.2-.422 1.809-.965 3.77-2.48 4.852-2.824 2.007-6.64-.372-9.125-2.793-15.313-14.88-26.446-35.899-34.696-55.36-7.753-18.3-12.128-38.07-12.773-57.937-.168-5.102 7.535-56.973 8.73-56.153M1287.34 2352.71c-18.711 9.063-25.95 22.122-39.828 37.185-3-11.157-23.762-30.579-37.633-35.918-17.23-6.633-71.41-37.2-51.309-106.899 10.442-36.207 57.282-55.156 83.14-23.781 4.52-5.293 12.212-10.856 20.169-14.3 23.512-10.192 55.66-.45 70.293 20.55 14.617 20.973 13.45 50.246 5.789 73.828-8.602 26.523-23.16 36.035-50.621 49.336m-63.442-282.574c5.68-1.004 11.403-.606 18.09 2.078 5.09 2.035 6.203 6.656 9.903 8.152 2.449.992 4.007-1.437 9.238-.789 5.031.625 16.621 4.89 14.18 21.238-1.188 7.946-14.66 12.95-21.02 12.465-6.36-.48-14.73-5.133-16.617-11.222-10.102 3.546-22.453-1.22-27.64-10.801-1.212-2.293-2.02-4.899-1.634-7.453 1.192-7.844 9.012-12.52 15.5-13.668m120.903 115.324c-3.063 3.02-7.43 5.176-11.672 6.121-5 1.117-10.66.262-14.41-3.23-1.489-1.391-2.64-3.149-4.25-4.395-6.188-4.777-17.098-.836-21.68-7.172-.418-1.597.57-3.305 1.95-4.195 1.39-.895 3.09-1.133 4.741-1.266 12.73-1.008 36.801 4.18 45.32 14.137m-6.972-57.582c1.332.707 2.66 1.512 3.524 2.742.957 1.363 1.218 3.078 1.457 4.727 1.011 7.07 2.71 14.449 2.82 21.558-12.89-3.61-30.027-6.965-41.469-14.418a35.4 35.4 0 0 1-12.379-13.957c13.918-7.933 31.918-8.191 46.047-.652m-185.219 66.574c-1.109.371-2.289.629-3.43.402-3.07-.613-4.378-4.203-5.1-7.253a282 282 0 0 1-5.817-34.067c-.07-.687-.14-1.398.027-2.07.313-1.254 1.371-2.16 2.371-2.973 6.04-5.293 17.7-18.324 25.961-18.992 5.027-.406 21.238 9.996 19.758 14.707a125.5 125.5 0 0 1-20.629 39.36c-3.55 4.554-7.672 9.046-13.14 10.886m-77.329-70.656c-.101-.817-.16-1.707.297-2.39.91-1.364 3-.88 4.5-.223a182 182 0 0 1 24.73 13.14c1.301.824 2.633 1.707 3.442 3.02.871 1.386 1.05 3.086 1.2 4.715 1.23 13.101 6.25 30.398-13.18 21.93-5.551-2.423-9.38-7.61-12.29-12.923a75.2 75.2 0 0 1-8.699-27.27m299.668 49.84c-.578.337-1.219.677-1.879.56-1.308-.235-1.629-1.954-1.64-3.286 0-7.597.582-15.191 1.742-22.695.187-1.238.406-2.524 1.117-3.555.762-1.097 1.961-1.781 3.133-2.426 9.36-5.187 20.61-14.554 20.629 2.672 0 4.922-2.621 9.469-5.63 13.364a61.3 61.3 0 0 1-17.472 15.367m-236.648-49.32c-.621.538-1.32 1.097-2.14 1.109-1.641.02-2.423-1.977-2.731-3.59a182 182 0 0 1-3.16-27.816c-.06-1.543-.079-3.141.53-4.555.66-1.5 1.962-2.606 3.22-3.653 10.101-8.433 21.52-22.359 25.53-1.55 1.15 5.949-.96 12.043-3.69 17.445a75.1 75.1 0 0 1-17.56 22.61m-160.5 60.34c17.72 28.198 52.009 16.136 74.731 2.69 5.93-3.511 12.297-7.5 19.14-6.702 3 .347 5.817 1.613 8.43 3.125 26.399 15.27 30.43 51.043 31.47 81.52 1.148 34.019-13.551 81.663-25 97.26-12.692 17.29-51.16 28.606-45.77 35.052 3.898 4.664 54.277-2.04 58.84-3.188 18.73-4.695 32.347-5.746 52.308-5.477 21.711.297 30.172 4.965 51.41 9.461 10.63 2.25 35.23 11.278 46.032 10.137 19.687-2.082 51.968-22.039 71.597-24.597 25.242-3.29 61.614 11.898 86.922 9.175 8.149-.879 14.961-7.836 5.371-12.261-8.23-3.797-21.18-10.946-23.332-13.118-3.058-3.078-6.097-6.246-8.789-9.656-7.719-9.812-13.082-21.558-15.27-33.863-4.261-23.992 4.301-50.035 8.141-73.64.68-4.177 1.367-8.407 3.11-12.266 1.73-3.86 4.648-7.368 8.597-8.883 15.172-5.828 38.633 4.36 52.14 10.562 6.903 3.172 14.192 6.844 21.7 5.723 11.57-1.727 21.742-11.36 20.934-23.691-.66-10.04-12.172-20.082-20.992-23.457 11.789 4.507 34.628.945 37.609-15.168 2.383-12.848-5.559-19.434-10.488-24.36-.97-.96-2.121-1.941-2.27-3.297-.14-1.258.66-2.402 1.36-3.453 14.328-21.316 1.39-51.515-24.25-56-11.47-2.008-23.25.817-34.211 4.746 4.84-1.734 3.082-21.383 2.37-25.054-1.831-9.391-6.609-15.872-14.421-21.332-11.528-8.055-26.57-9.907-40.438-7.57-2.84.48-5.812 1.112-8.562.222-1.989-.645-3.63-2.027-5.309-3.277-12.95-9.63-30.18-12.192-46.12-9.692-15.93 2.496-33.2 6.496-44.642 17.863 7.551-7.496 8.883-25.66 7.614-35.464-1.672-12.934-8.082-25.418-18.524-33.418-12.117-9.297-25.168-14.192-40.316-16.18-8.14-1.07-19.094-.164-27.094 1.684-10.617 2.449-19.617 9.273-28.25 15.921-7.59-14.683-22.969-27.855-38.558-32.09-15.68-4.261-32.7-5.164-50.79-2.324-17.011 2.676-33.23 14.438-37.69 31.07-16.99-6.593-37.614-2.492-50.782 10.098-6.946 6.645-11.211 14.563-13.64 24.852-2.673 11.289 2.687 21.582-.653 25.82-2.985 3.781-13.61 1.172-22.735 6.942-6.851 4.328-12.957 10.086-16.554 17.375-7.137 14.449-5.121 32.77 4.379 45.793 9.496 13.02 25.867 20.484 41.976 19.906-8.484 14.203-9.75 38.129-.73 52.48" style="stroke:none;fill-rule:nonzero;fill:#b3d001;fill-opacity:1"/><path d="M830.684 691.371c-1.383-31.84-7.114-75.93.175-106.95.88-3.73 1.883-7.581 4.325-10.542 7.793-9.45 23.59-4.02 34.66-9.27 18.8-8.918 6.48-48.05 23.472-60.058 20.356-14.39 44.438 11.699 61.93 19.8 5.402 2.508 11.777 4.098 17.234 1.72 6.684-2.923 11.375-10.02 18.668-10.22 32.18-.87 74.59 56.098 80.16 62.477 3.481 3.973 12.762 15.594 13.75 20.582 1.301 6.531.614 15.16-11.187 17.692-47.55 10.168-91.273 27.808-100.984 32.078-9.684 4.261-25.934 11.37-42.64 19.8-25.087 12.66-50.02 28.508-61.919 35.91-7.058 4.4-20.078 9.29-28.527 6.32-6.957-2.429-8.844-13.03-9.117-19.339M1053.148 1916.527c14.864-4.949 30.961-5.57 46.551-4.109 110.16 10.32 144.332 6.371 270.461-3.383 34.25-2.648 65.121 9.211 86.692 24.656 25.136 18.004 60.238 35.606 90.859 39.344 14.809 1.809 30.098.277 44.2-4.625 8.058-2.8 35.57-14.18 34.37-24.848-.8-7.199-15.222-9.261-20.761-11.714-9.7-4.297-19.13-9.176-28.34-14.426-18.54-10.559-36.168-22.61-53.68-34.77-39.879-27.683-77.191-107.129-108-110.757-23.5-2.766-38.262 30.445-56.7 37.312-7.62 2.836-17.21 4.395-27.32 4.586-13.69.258-40.808-9.367-59.28-9.961-18.47-.598-36.122 10.191-58.778 11.242-18.332.852-43.48-10.09-67.344-10.554-18.2-.356-33.078 5.23-51.277 7.12-16.04 1.665-33.27-9.96-46.07-19.78-16.692-12.801-31.7-15.051-42.75-10.024-21.047 9.566-28.012 45.062-36.415 64.059-14.699 33.23-39.726 58.543-68.48 80.476-16.371 12.484-34.887 22.652-55.024 26.945-4.62.985-10.16 2.356-11.613 6.852-1.539 4.766 2.739 9.316 6.797 12.25 15.633 11.289 29.879 13.883 49.113 13.328 34.309-.988 56.489-12.55 69.043-21.555 28.383-20.351 59.328-36.191 93.746-47.664" style="stroke:none;fill-rule:nonzero;fill:#b3d001;fill-opacity:1"/><path d="M531.715 1141.79c-9.43-8.88-21.18-14.911-33.153-19.849-7.554-3.12-15.55-5.902-23.703-5.312-8.148.582-16.507 5.312-19.035 13.082-1.601 4.93-.687 10.398 1.43 15.129 2.113 4.73 5.348 8.86 8.547 12.93l13.336 16.98c4.636 5.91 8.98 10.738 14.61 15.719 16.44 14.543 34.827 27.89 54.136 38.293 8.605 4.629 17.476 9.347 27.187 10.5-1.41-2.133-2.82-4.274-4.23-6.41 8.937 1.757 18.414-2.633 24.074-9.774 5.66-7.137 7.828-16.598 7.445-25.7-1.09-25.827-15.449-54.616-29.195-76.007-11.266-17.531-26.777-33.012-46.187-40.582-.332 10.54 2.414 19.75 6.324 29.492 4.59 11.43 11 23.29 12.898 35.57 2.45 15.868-9.511.618-14.484-4.062M387.523 1306.488c8.188.903 15.895 5.48 20.598 12.23 2.422 3.481 4.09 7.641 3.79 11.872-.614 8.71-8.188 15.73-16.247 18.05-7.703 2.212-16.156.77-23.32-2.82 6.863 4.52 11.101 12.57 11.543 20.782.597 11.039-5.871 24.707-16.27 29.488-6.746 3.11-15.242 2.21-21.004-2.48-11.562-9.419-8.086-25.079-7.613-37.88-3.121 3.59-6.52 5.95-10.238 8.04-5.426 3.058-12.145 4.359-18.301 3.43-9.656-1.45-15.45-11.68-14.469-21.4.528-5.241 3.223-15.679 16.266-20.26-8.785-3.36-14.961-12.75-14.262-22.118.703-9.383 8.426-17.863 17.746-19.121 9.317-1.27 19.168 5.05 21.617 14.129-.015-8.078 6.309-15.72 14.254-17.211 7.942-1.5 16.614 3.32 19.535 10.851 2.946 7.578-.574 13.942-4.671 19.918 7.03-3.039 12.902-6.386 21.046-5.5M602.574 1859.836c-1.168-16.184-7.496-32.477-19.703-43.164-10.93-9.567-27.902-14.383-41.84-8.938-1.508.59-3.031 1.864-4.687 1.887-2.27.031-4.91-1.785-7.02-2.523-6.648-2.34-13.562-2.586-20.496-1.5-3.793.597-7.574 1.468-11.074 3.054-18.113 8.22-28.234 33.207-30.8 51.5-.895 6.38-1.212 12.88-.345 19.262 1.625 11.95 7.45 23.168 15.727 31.941 8.273 8.778 18.91 15.165 30.3 19.133 4.778 1.668 9.778 2.934 14.84 2.813 5.06-.121 10.22-1.742 13.895-5.223 9.625 3.059 20.328.86 29.23-3.91 11.16-5.98 20.04-15.883 25.454-27.332 5.414-11.445 7.433-24.371 6.52-37M329.492 1922.535c-1.195 3.637-.379 8.031 2.27 10.781s7.07 3.524 10.207 1.543c2.097-1.324 3.46-3.648 4.246-6.086 1.687-5.222-1.227-10.941-6.348-12.527-4.71-1.453-8.87 1.707-10.375 6.29m122.395 168.905c-4.106.414-14.813 2.508-17.57 3.114-2.528.55-3.641.34-5.844-1.22-5.317-3.765-10.586-8.718-15.278-13.237-1.816-1.746-10.187-11.305-12.336-12.711-1.515-1-4.523-2.649-7.515-3.922-14.563-6.192-21.578-10.996-33.867-20.543-.504-.39-1.024-.426-.73.418 1.07 3.082 3.038 5.898 3.667 7.11.504.964.91 2.01.922 3.1.008.798.21 6.391-.816 8.137-.239.41-.508.825-.915 1.063-1.046.617-2.335-.187-3.257-.977-3.938-3.355-9.016-8.312-12.786-14.273-2.824-4.473-4.167-8.336-5.64-12.883-.695-2.148-1.317-4.394-2.719-6.172-1.02-1.293-2.394-2.25-3.734-3.203-20.602-14.765-41.035-29.695-54.59-51.234-1.504-2.387-2.953-4.844-3.781-7.535-.227-.735-.403-1.555-.075-2.25.883-1.864 5.657-.91 7.47-1.164 2.91-.407 5.745-1.278 8.433-2.454 5.398-2.359 10.238-5.93 14.437-10.03 5.59-5.466 10.43-12.184 12.446-19.626.593-2.195-.813-3.422-2.313-.836-2.207 3.813-5.117 8.535-7.422 11.227-4.39 5.133-10.164 9.363-16.797 10.652-4.207.82-8.574.434-12.77-.449-4.929-1.04-9.82-2.809-13.71-6.008-5.914-4.855-8.86-12.348-11.531-19.515-2.125-5.7-4.235-11.47-5.2-17.497-.449-2.793-.09-5.8-.687-8.527-.543-2.488-1.352-4.98-1.902-7.5-.528-2.387-1.008-5.02.164-7.164 1.332-2.437 4.441-3.508 5.722-5.977 1.157-2.234 1.395-4.023 2.274-6.382 1.633-4.368 7.343-5.258 12.008-5.227 20.69.149 37.816 10.293 55.953 13.93 30.347 6.086 72.086 27.46 98.683 47.074 1.758 1.3 20.547 2.723 27.281 4.078 7.34 1.485 14.692 2.992 21.856 5.192 5.871 1.804 11.613 4.09 16.945 7.16.91.52 1.86 1.125 2.285 2.082.961 2.156-1.222 4.37-3.27 5.547-8.312 4.789-18.523 6.011-26.07 11.925-1.44 1.125-2.882 2.817-2.374 4.575.183.64.609 1.175 1.027 1.699 10.312 12.906 60.754 77.172 61.816 78.469 10.938 13.355 20.762 28.128 38.91 31.738 4.579.914 9.266 1.07 13.922 1.394a189.8 189.8 0 0 1 55.743 12.551c6.66 2.602 23.617 10.195 25.453 14.817.71 1.793-7.547 8.171-10.367 10.066-8.383 5.637-18.766 9.914-28.52 12.223-.77.18-1.54.359-2.316.492-5.942 1.008-12.133.972-18.141.797a145 145 0 0 1-10.969-.73c-2.668-.278-5.969-1.192-7.965 1.183-1.379 1.64-1.718 3.883-2.03 6.004-1.626 10.996-3.915 21.972-8.13 32.261-2.93 7.157-6.812 13.973-11.828 19.875-4.598 5.41-10.3 12.047-16.617 15.43-8.547-14.941-7.274-38.539-7.008-55.75.277-17.71-1.898-39.004-18.328-49.156-17.774-10.988-39.242-13.29-59.7-11.23M750.758 1711.285c-1.496 3.027-2.621 6.34-2.45 9.711.286 5.754 4.172 10.578 7.087 15.555 4.738 8.097 7.109 17.336 9.203 26.48 9.699 42.383 14.882 86.688 35.226 125.114 2.606 4.921 5.469 9.773 7.04 15.117 1.57 5.34 1.71 11.37-1 16.23-1.34 2.399-3.325 4.438-4.317 6.996-.473 1.227-.547 2.918.61 3.547.823.445 1.831.09 2.698-.27 6.254-2.597 12.504-5.199 18.758-7.796 15.14-6.293 33.114-13.492 44.028-26.13 12.773-14.792 24.257-30.886 32.863-48.48 13.008-26.593 22.289-63.129 9.226-91.52-1.683-3.655-14.449-31.026-34.171-46.417-14.746-11.508-33.91-15.8-52.536-17.879-25.457-2.844-58.359-8.383-72.265 19.742M448.504 1798.855c71.933-9.816 206.008-71.23 153.476-163.46-14.214-24.954-37.918-45.157-65.89-51.649-5.461-1.27-11.317-2.148-15.621-5.73-3.324-2.762-5.285-6.793-7.106-10.711-8.343-17.953-15.898-36.39-26.691-52.989-7.895-12.132-17.55-22.8-29.371-31.195-10.375-7.363-16.813-11.71-17.078-25.922-.207-10.976-.41-21.949-.618-32.922-.085-4.695-.82-10.406-5.144-12.238-3-1.27-6.406 0-9.441 1.176-16.325 6.308-33.66 9.96-51.133 10.875-5.067.265-10.149.305-15.215.11a164 164 0 0 1-11.516-.848c-.933-.098-2.426-.547-3.336-.18-.382.156-.68.601-.523.984.543 1.324 3.129 2.02 4.285 2.504q2.853 1.197 5.664 2.504c3.805 1.77 7.55 3.668 11.285 5.582 21.172 10.82 46.43 13.395 69.352 7.074 3.437-.949-2.395 26.512-3.54 28.723-5.046 9.762-10.929 11.176-19.37 16.242-20.328 12.2-38.18 35.254-53.286 53.219-8.296 9.863-25.234 9.726-36.734 11.582-32.828 5.297-61.488 10.355-90.738 27.082-12.18 6.96-24.57 16.434-27.496 30.152-1.43 6.727-.364 13.766 1.695 20.325 8.75 27.824 35.926 45.859 62.664 54.078 18.89 5.804 38.8 7.265 58.512 8.691 31.027 2.242 108.758 7.7 120.848-33.262 8.82-29.875-21.192-42.87-45.333-36.148-6.636 1.848-13.527 5.629-15.617 12.195-.75 2.363-.808 4.899-1.523 7.274-1.79 5.949-7.55 10.023-13.578 11.523-6.028 1.496-12.36.852-18.528.121-7.789-.922-15.691-2-22.863-5.183-7.168-3.184-13.625-8.801-16.05-16.262-2.997-9.23.808-19.664 7.495-26.7 6.688-7.03 15.829-11.19 25.012-14.331 29.774-10.188 61.89-11.141 92.863-6.989 36.946 4.953 98.91 17.102 95.07 66.133-1.663 21.285-15.765 40.117-33.417 52.121-17.656 12.004-38.606 18.11-59.41 22.89-62.93 14.47-127.536 8.266-190.227-4.913-40.926-8.602-65.27-23.969-80.086-64.625-4.586-12.582-11.273-27.926-24.648-28.57-8.336-.407-15.653 5.617-20.625 12.32-10.399 14.023-14.313 32.215-12.801 49.61 1.508 17.394 4.652 39.695 14.957 53.788 47.7 65.254 139.726 65.332 199.023 64.356 34.598-.574 88.04-3.727 122.352-8.407" style="stroke:none;fill-rule:nonzero;fill:#00adec;fill-opacity:1"/><path d="M33.492 945.23c.63-12.902 1.067-29.03 5.688-46.261 4.465-16.64 12.855-34.32 28.129-50.008 11.351 74.418 32.726 119.64 85.144 173.437 23.969 24.602 76.32 58.66 134.348 85.153 61.668 28.16 104.308 61.46 158.64 100.308 134.543 96.211 197.356 213.512 211.766 248.547 9.777 23.774 19.11 38.895 27.25 57.125 57.645 129.117 13.512 274.719 40.406 411.317 16.77 85.191 70.672 149.937 94.367 173.312 23.254 22.934 66.364 56.75 97.528 98.52 27.715 37.156 52.336 80.68 49.793 126.965-.64 11.62-3.364 23.699-11.074 32.418-13.883 15.703-38.235 15.14-58.95 11.914-12.004-1.872-23.039-4.758-33.32-7.676-49.02-13.899-79.453-37.93-100.187-60.563-18.622-20.328-31.02-45.633-43.817-70.047-64.867-123.78-78.562-258.937-81.633-397.476-2.61-117.906 40.403-235.856-15.722-340.461-47.043-87.676-62.614-125.223-218.535-212.524-54.07-30.27-109.668-61.609-165.711-88.421-57.364-27.45-122.36-64.97-157.18-104.04-41.031-46.039-47.957-120.44-46.93-141.539" style="stroke:none;fill-rule:nonzero;fill:#00adec;fill-opacity:1"/><path d="M458.063 1032.059c1.523-4.739-.07-10.168-2.645-14.54-7.527-12.769-20.563-15.847-33.652-19.94-5.352-1.669-10.852-2.79-16.262-4.24-1.496-.398-3.137-.898-3.945-2.218-.625-1.02-.606-2.293-.575-3.48.465-16.5-.66-34.02-10.023-47.61-.8-1.172-1.77-2.37-3.145-2.71-1.214-.31-2.488.14-3.628.66-2.43 1.09-4.676 2.53-6.805 4.18-12.043 9.37-20.18 25.679-35.235 26.878-8.953.711-17.168-4.469-25.746-7.14-8.574-2.66-20.242-1.329-23.277 7.12-1.832 5.102.34 10.7 2.652 15.61 5.66 12 14.512 20.07 6.7 32.89-7.051 11.56-21.055 16.57-28.793 27.56-2.348 3.343-4.051 7.76-2.29 11.44.817 1.711 2.282 3.02 3.786 4.18 9.632 7.41 22.203 10.352 34.343 9.84 12.145-.52 23.95-4.25 35.106-9.078-1.348 20.05 8.242 40.508 24.52 52.3 3.16 2.29 5.988 3.618 9.64 2.239 2.992-1.121 4.727-4.18 6.121-7.059 5.133-10.59 10.875-21.043 14.145-32.402 2.73-9.508 3.07-20.71 12.332-26.48 5.39-3.36 11.855-4.457 18.164-5.22 6.304-.76 12.746-1.26 18.648-3.609 3.824-1.53 7.5-4 9.281-7.71.23-.48.422-.97.582-1.461M134.172 1316.281c-7.547-14.48-13.77-18.562-20.871-23.98-4.059-3.102-8.27-8.121-10.66-12.63-1.313-2.48-3.23-7.093-2.43-12.01.746 3.519 3.41 8.089 5.656 10.898 1.817 2.28 4.465 5.3 7.762 7.25 3.223 1.902 3.594-6.258 3.785-7.887 1.445-12.281 1.23-22.883 1.316-35.25.168-23.442-3.484-47.442-16.046-67.652-4.551-7.32-11-14.461-19.543-15.598-14.254-1.922-24.536 12.988-30.489 26.078-6.523 14.352-12.273 29.04-17.136 44.031-7.254 22.367-14.297 44.34-19.508 67.25-6.438 28.32-7.153 48.13-4.383 72.36 4.875 42.605 12.105 86.515 35.7 122.332 38.991 51.62 100.413 62.16 145.097 71.113 1.289-13.008 5.812-31.871 35.215-45.152 16.363-7.391 27.879-9.977 45.25-14.52 5.48-1.434 11.199-2.758 16.77-1.719 5.573 1.04 10.98 5.07 11.84 10.672 12.913-18.554 19.39-57.875 7.773-92.976-4.375-13.211-15.454-34.871-32.153-47.97-3.687 26.93-9.336 55.829-23.707 78.895-11.258 18.063-27.976 34.352-48.574 39.649-34.121 8.777-60.461.773-74.262-19.89-22.84-34.208-21.797-75.634-18.957-116.665.422-6.07-.226-11.351-3.097-16.77-2.82-5.32-6.641-8.44-9.762-13.68-8.278-13.901-8.676-23.081-6.45-40.179-.156 10.758 3.27 25.25 9.516 33.989 5.61 7.859 12.047 15.02 20.645 19.609 6.629 3.543 11.98 10.23 15.523 17.86 2.121-11.5 2.13-22.009-3.82-37.458" style="stroke:none;fill-rule:nonzero;fill:#00adec;fill-opacity:1"/><path d="M199.41 1328.371c-23.488-.93-44.504 15.258-58.5 34.14 11.52-2.331 22.14 5.86 32.875 10.65 18.235 8.128 39.899 6.487 58.125-1.661 6.016-2.691 10.004-5.328 16.43-6.79 4.633-1.062 9.816-2.32 15.226-1.429 2.098.348 2.438-.422.551-1.55-9.422-5.622-18.144-8.461-25.984-10.5-10.742-2.81-22.653-4.07-32.578-3.34-.785.05-1.715-.243-.2-.961 3.305-1.57 9.317-2.918 16.434-2.73 4.313.12 14.098 2.78 17.149-.731-9.66-8.688-26.602-14.578-39.528-15.098" style="stroke:none;fill-rule:nonzero;fill:#00adec;fill-opacity:1"/></svg>